<svg xmlns="http://www.w3.org/2000/svg" width="41" height="41" viewBox="0 0 41 41"><g transform="translate(-143 -5504)"><path d="M453.321,3620.2c-2.4-2.787-28.813-36.786-9.124-30.655s16.328,11.7,16.328,11.7-.96-1.672-4.322,8.361S453.321,3620.2,453.321,3620.2Z" transform="translate(-283.77 1918.748)" fill="#fff" opacity="0.3"/><g transform="translate(143 5504)"><g transform="translate(0)"><path d="M40.317,39.633H37.583V20.5a2.052,2.052,0,0,0-2.05-2.05v-4.1a2.052,2.052,0,0,0-2.05-2.05V8.2a2.052,2.052,0,0,0-2.05-2.05V2.05A2.052,2.052,0,0,0,29.383,0H11.617a2.052,2.052,0,0,0-2.05,2.05v4.1A2.052,2.052,0,0,0,7.517,8.2v4.1a2.052,2.052,0,0,0-2.05,2.05v4.1a2.052,2.052,0,0,0-2.05,2.05V39.633H.683A.683.683,0,0,0,.683,41H40.317a.683.683,0,0,0,0-1.367ZM10.933,2.05a.684.684,0,0,1,.683-.683H29.383a.684.684,0,0,1,.683.683v4.1H19.748a3.417,3.417,0,0,0-6.7,0H10.933V2.05Zm7.391,4.1H14.476a2.038,2.038,0,0,1,3.848,0ZM8.883,8.2a.684.684,0,0,1,.683-.683H31.433a.684.684,0,0,1,.683.683v4.1H17.7a3.417,3.417,0,0,0-6.7,0H8.883V8.2Zm7.391,4.1H12.426a2.038,2.038,0,0,1,3.848,0ZM6.833,14.35a.684.684,0,0,1,.683-.683H33.483a.684.684,0,0,1,.683.683v4.1H15.648a3.417,3.417,0,0,0-6.7,0H6.833Zm7.391,4.1H10.376a2.038,2.038,0,0,1,3.848,0ZM36.217,39.633H4.783V20.5a.684.684,0,0,1,.683-.683H35.533a.684.684,0,0,1,.683.683V39.633Z" transform="translate(0)" fill="#fff"/><path d="M97.847,289.561a3.98,3.98,0,1,0-3.98-3.98A3.98,3.98,0,0,0,97.847,289.561Zm0-6.634a2.654,2.654,0,1,1-2.654,2.654A2.654,2.654,0,0,1,97.847,282.927Z" transform="translate(-86.295 -258.885)" fill="#fff"/><path d="M236.461,281.6H222.53a.663.663,0,1,0,0,1.327h13.931a.663.663,0,1,0,0-1.327Z" transform="translate(-203.778 -259.027)" fill="#fff"/><path d="M236.461,324.267H222.53a.663.663,0,1,0,0,1.327h13.931a.663.663,0,1,0,0-1.327Z" transform="translate(-203.778 -298.274)" fill="#fff"/><path d="M236.461,366.933H222.53a.663.663,0,0,0,0,1.327h13.931a.663.663,0,0,0,0-1.327Z" transform="translate(-203.778 -337.52)" fill="#fff"/><path d="M119.578,409.6H94.562a.664.664,0,1,0,0,1.327h25.016a.664.664,0,1,0,0-1.327Z" transform="translate(-86.57 -377.416)" fill="#fff"/><path d="M119.578,452.267H94.562a.664.664,0,1,0,0,1.327h25.016a.664.664,0,1,0,0-1.327Z" transform="translate(-86.57 -415.911)" fill="#fff"/></g></g></g></svg>