<svg xmlns="http://www.w3.org/2000/svg" width="41" height="41" viewBox="0 0 41 41"><g transform="translate(-140 -3593)"><g transform="translate(140 3593)"><path d="M457.141,3619.675c-2.961-2.74-35.536-36.172-11.253-30.144s20.137,11.509,20.137,11.509-1.185-1.644-5.33,8.221S457.141,3619.675,457.141,3619.675Z" transform="translate(-435.388 -3584.352)" fill="#fff" opacity="0.3"/><g transform="translate(0 0)"><path d="M23.466,0H0V41H30.481V7.234Zm.388,2.333,4.364,4.5H23.854Zm5.3,37.3H1.325V1.367h21.2V8.2h6.626Z" fill="#fff"/><g transform="translate(3.005 6.467)"><path d="M44.591,93.786a7.478,7.478,0,0,0,.476-10.564q-.227-.249-.476-.476L45.833,81.5h1.192V80H45.211l-1.834,1.834a7.514,7.514,0,1,0,0,12.862l1.083,1.083h1.814v-1.5H45.082Zm-4.329-11.48a5.974,5.974,0,0,1,2.014.628l-.292.292,1.062,1.062.481-.481a6,6,0,0,1,1.942,3.707H40.263Zm3.266,10.417-.481-.481L41.986,93.3l.292.292a6.007,6.007,0,1,1-3.517-11.29v6.711h6.711A6,6,0,0,1,43.529,92.723Z" transform="translate(-31.997 -80)" fill="#fff"/></g><g transform="translate(17.67 6.072)"><rect width="2.923" height="1.349" fill="#fff"/></g><g transform="translate(17.67 8.151)"><rect width="2.923" height="1.574" fill="#fff"/></g><g transform="translate(17.061 18.34)"><rect width="2.923" height="1.574" fill="#fff"/></g><g transform="translate(17.061 21.204)"><rect width="2.923" height="1.349" fill="#fff"/></g><g transform="translate(3.823 25.282)"><rect width="1.349" height="1.349" fill="#fff"/></g><g transform="translate(5.953 25.282)"><rect width="24.737" height="1.349" fill="#fff"/></g><g transform="translate(3.823 27.918)"><rect width="27.661" height="1.574" fill="#fff"/></g><g transform="translate(3.823 30.567)"><rect width="27.661" height="1.574" fill="#fff"/></g><g transform="translate(3.823 32.798)"><rect width="27.661" height="1.349" fill="#fff"/></g><g transform="translate(3 3)"><g transform="translate(0 0)"><rect width="2" height="2" fill="#fff"/></g></g><g transform="translate(6 3)"><g transform="translate(0 0)"><rect width="6" height="2" fill="#fff"/></g></g><g transform="translate(32.735 0.751)"><path d="M398.011,15.491v-3.4h-.751V8h-4.508v4.086H392V42.73h.751v2.724h1.5V47.5h1.5V45.454h1.5V42.73h.751V16.853h.751v6.129h1.5V15.491Zm-3.757-6.129h1.5v2.724h-1.5Zm1.5,34.73h-1.5V42.73h1.5Zm.751-2.724H393.5V15.491h3.006Zm0-27.239H393.5v-.681h3.006Z" transform="translate(-392 -8)" fill="#fff"/></g></g></g></g></svg>