<svg xmlns="http://www.w3.org/2000/svg" width="41" height="41" viewBox="0 0 41 41"><g transform="translate(-164 189)"><g transform="translate(164 -189)"><path d="M456.624,3621.311c-2.886-2.885-34.626-38.089-10.965-31.741s19.622,12.119,19.622,12.119-1.154-1.731-5.194,8.656S456.624,3621.311,456.624,3621.311Z" transform="translate(-436.085 -3588.806)" fill="#fff" opacity="0.3"/><g transform="translate(0 0.043)"><path d="M38.106,21.441a30.741,30.741,0,0,0-5.954-.483c-.98,0-1.906.029-2.763.084V2.2a2.2,2.2,0,0,0-2.2-2.2H2.2A2.3,2.3,0,0,0,0,2.52v33.2A2.167,2.167,0,0,0,2.2,37.6H23.3v.92c0,1.356,2.178,1.809,2.894,1.957a30.74,30.74,0,0,0,5.954.483,30.74,30.74,0,0,0,5.954-.483c.716-.149,2.894-.6,2.894-1.957V23.4C41,22.042,38.822,21.59,38.106,21.441ZM39.8,30.954c-.012.026-.262.467-2.138.827a30.646,30.646,0,0,1-5.509.417,30.646,30.646,0,0,1-5.509-.417c-1.922-.369-2.137-.823-2.138-.823V28.62a7.837,7.837,0,0,0,1.693.515,30.74,30.74,0,0,0,5.954.483,30.74,30.74,0,0,0,5.954-.483A7.838,7.838,0,0,0,39.8,28.62Zm-24.344.124a.6.6,0,0,0-.6.6V33.2H5.726a.533.533,0,0,1-.521-.36v-5.96h9.649v2a.6.6,0,0,0,1.2,0v-2H23.3V33.2H16.056v-1.52A.6.6,0,0,0,15.455,31.078Zm10.25-9.527c-.921.226-2.4.729-2.4,1.848v2.28H16.056v-6.32h9.129a.521.521,0,0,1,.521.52ZM14.854,25.678H5.205v-5.64c0-.407.209-.68.521-.68h9.129Zm24.944,1.5c-.012.026-.262.467-2.138.827a30.646,30.646,0,0,1-5.509.417A30.646,30.646,0,0,1,26.642,28c-1.922-.369-2.137-.823-2.138-.823V24.84a7.837,7.837,0,0,0,1.693.515,30.734,30.734,0,0,0,5.954.483,30.741,30.741,0,0,0,5.954-.483A7.838,7.838,0,0,0,39.8,24.84Zm-2.138-4.6c1.812.347,2.107.771,2.136.823-.029.052-.325.475-2.136.823a30.646,30.646,0,0,1-5.509.417,30.646,30.646,0,0,1-5.509-.417c-1.812-.347-2.107-.771-2.136-.823.029-.052.325-.475,2.136-.823a30.646,30.646,0,0,1,5.509-.417A30.646,30.646,0,0,1,37.661,22.576ZM2.2,36.4a1.041,1.041,0,0,1-1-.68V16.159H20.98a.6.6,0,1,0,0-1.2H1.2V2.52c0-.8.393-1.32,1-1.32H27.187a1,1,0,0,1,1,1V14.959h-4.4a.6.6,0,1,0,0,1.2h4.4v4.984q-.681.071-1.281.168V19.879a1.723,1.723,0,0,0-1.722-1.72H5.726A1.766,1.766,0,0,0,4,20.039v12.8A1.69,1.69,0,0,0,5.726,34.4H23.3v2ZM37.661,39.34a30.647,30.647,0,0,1-5.509.417,30.647,30.647,0,0,1-5.509-.417c-1.922-.369-2.137-.823-2.138-.823V36.18A7.836,7.836,0,0,0,26.2,36.7a30.74,30.74,0,0,0,5.954.483c1.145,0,2.229-.04,3.222-.118a.6.6,0,1,0-.094-1.2c-.962.076-2.015.114-3.128.114a30.646,30.646,0,0,1-5.509-.417c-1.922-.368-2.137-.823-2.138-.823V32.4a7.836,7.836,0,0,0,1.693.515,30.741,30.741,0,0,0,5.954.483,30.741,30.741,0,0,0,5.954-.483A7.837,7.837,0,0,0,39.8,32.4v2.334c-.012.026-.234.416-1.823.762a.6.6,0,1,0,.256,1.172A7.557,7.557,0,0,0,39.8,36.18v2.334C39.786,38.539,39.536,38.98,37.661,39.34Z" fill="#fff"/><path d="M74.591,48.611V41.842A1.844,1.844,0,0,0,72.749,40H58.568a.643.643,0,0,0,0,1.285H72.749a.558.558,0,0,1,.557.557v6.769a.558.558,0,0,1-.557.557H51.842a.558.558,0,0,1-.557-.557V41.842a.558.558,0,0,1,.557-.557h3.727a.643.643,0,1,0,0-1.285H51.842A1.844,1.844,0,0,0,50,41.842v6.769a1.844,1.844,0,0,0,1.842,1.842H72.749A1.844,1.844,0,0,0,74.591,48.611Z" transform="translate(-45.716 -36.573)" fill="#fff"/><path d="M101.27,368H96.643a.643.643,0,0,0,0,1.285h4.627a.643.643,0,0,0,0-1.285Z" transform="translate(-88.396 -338.625)" fill="#fff"/><path d="M101.643,255.17h1.242v1.242a.643.643,0,1,0,1.285,0V255.17h1.242a.643.643,0,0,0,0-1.285H104.17v-1.242a.643.643,0,1,0-1.285,0v1.242h-1.242a.643.643,0,0,0,0,1.285Z" transform="translate(-92.986 -232.028)" fill="#fff"/><path d="M236.706,258.632a.643.643,0,0,0-.909,0l-.879.879-.879-.879a.643.643,0,0,0-.909.909l.879.879-.879.879a.643.643,0,0,0,.909.909l.879-.879.879.879a.643.643,0,1,0,.909-.909l-.879-.879.879-.879A.643.643,0,0,0,236.706,258.632Z" transform="translate(-214.419 -237.915)" fill="#fff"/><path d="M232.289,355.345a.641.641,0,0,0,.454-.188l2.913-2.913a.643.643,0,0,0-.909-.909l-2.913,2.913a.643.643,0,0,0,.454,1.1Z" transform="translate(-213.234 -323.268)" fill="#fff"/><g transform="translate(18.718 27.591)"><ellipse cx="0.548" cy="0.657" rx="0.548" ry="0.657" fill="#fff"/><circle cx="0.657" cy="0.657" r="0.657" transform="translate(2.41 3.287)" fill="#fff"/></g><path d="M261.7,74.484a1.5,1.5,0,0,0,1.5-1.5V70.5a1.5,1.5,0,0,0-1.5-1.5h-1.2a1.5,1.5,0,0,0-1.5,1.5v2.485a1.5,1.5,0,0,0,1.5,1.5Zm-1.414-1.5V70.5a.214.214,0,0,1,.214-.214h1.2a.214.214,0,0,1,.214.214v2.485a.214.214,0,0,1-.214.214h-1.2A.214.214,0,0,1,260.285,72.984Z" transform="translate(-238.413 -63.088)" fill="#fff"/></g></g></g></svg>