<svg xmlns="http://www.w3.org/2000/svg" width="200" height="200.194" viewBox="0 0 200 200.194"><g transform="translate(-1106 -4595.806)"><path d="M526.729,3737.144c-13.168-13.168-158.019-173.821-50.039-144.851s89.544,55.307,89.544,55.307-5.267-7.9-23.7,39.5S526.729,3737.144,526.729,3737.144Z" transform="translate(673 1007)" fill="#dc9168" opacity="0.3"/><g transform="translate(1106 4596)"><path d="M185.882,104.7c-7.414-1.541-17.459-2.356-29.046-2.356-4.782,0-9.3.141-13.477.412V10.742A10.755,10.755,0,0,0,132.617,0H10.742C4.518,0,0,5.175,0,12.3V174.414c0,4.245,4.693,9.18,10.742,9.18h102.93v4.492c0,6.623,10.626,8.832,14.118,9.558C135.2,199.185,145.248,200,156.836,200s21.632-.815,29.046-2.356c3.492-.726,14.118-2.935,14.118-9.558V114.258C200,107.635,189.374,105.426,185.882,104.7Zm8.259,46.453c-.061.126-1.28,2.279-10.43,4.036a149.343,149.343,0,0,1-26.874,2.038,149.342,149.342,0,0,1-26.874-2.038c-9.376-1.8-10.425-4.017-10.43-4.017V139.755a38.2,38.2,0,0,0,8.259,2.517c7.414,1.541,17.459,2.356,29.046,2.356s21.632-.815,29.046-2.356a38.2,38.2,0,0,0,8.259-2.517Zm-118.75.6a2.929,2.929,0,0,0-2.93,2.93v7.422H27.93a2.6,2.6,0,0,1-2.539-1.758v-29.1h47.07v9.766a2.93,2.93,0,0,0,5.859,0V131.25h35.352v30.859H78.32v-7.422A2.929,2.929,0,0,0,75.391,151.758Zm50-46.523c-4.492,1.1-11.719,3.56-11.719,9.023v11.133H78.32V94.531h44.531a2.542,2.542,0,0,1,2.539,2.539Zm-52.93,20.155H25.391V97.852c0-1.986,1.02-3.32,2.539-3.32H72.461Zm121.68,7.305c-.061.126-1.28,2.279-10.43,4.036a149.341,149.341,0,0,1-26.874,2.038,149.341,149.341,0,0,1-26.874-2.038c-9.376-1.8-10.425-4.017-10.43-4.017V121.3a38.2,38.2,0,0,0,8.259,2.517c7.414,1.542,17.459,2.357,29.046,2.357s21.632-.815,29.046-2.356a38.205,38.205,0,0,0,8.259-2.517Zm-10.43-22.455c8.837,1.7,10.277,3.764,10.421,4.017-.143.253-1.584,2.32-10.421,4.017a149.341,149.341,0,0,1-26.874,2.038,149.341,149.341,0,0,1-26.874-2.038c-8.837-1.7-10.277-3.764-10.421-4.017.143-.253,1.584-2.32,10.421-4.017a149.342,149.342,0,0,1,26.874-2.038A149.341,149.341,0,0,1,183.71,110.241ZM10.742,177.734c-2.821,0-4.883-2.33-4.883-3.32V78.906h96.484a2.93,2.93,0,0,0,0-5.859H5.859V12.3c0-3.915,1.916-6.445,4.883-6.445H132.617a4.888,4.888,0,0,1,4.883,4.883v62.3H116.016a2.93,2.93,0,0,0,0,5.859H137.5v24.339q-3.322.346-6.25.821v-7a8.408,8.408,0,0,0-8.4-8.4H27.93c-4.788,0-8.4,3.946-8.4,9.18v62.5c0,4.058,3.925,7.617,8.4,7.617h85.742v9.766ZM183.71,192.1a149.343,149.343,0,0,1-26.874,2.038,149.342,149.342,0,0,1-26.874-2.038c-9.376-1.8-10.425-4.017-10.43-4.017V176.669a38.2,38.2,0,0,0,8.259,2.517c7.414,1.541,17.459,2.356,29.046,2.356,5.583,0,10.872-.193,15.719-.575a2.93,2.93,0,1,0-.46-5.841c-4.695.37-9.828.557-15.259.557a149.341,149.341,0,0,1-26.874-2.038c-9.376-1.8-10.425-4.016-10.43-4.016V158.212a38.2,38.2,0,0,0,8.259,2.517c7.414,1.541,17.459,2.356,29.046,2.356s21.632-.815,29.046-2.356a38.2,38.2,0,0,0,8.259-2.517v11.4c-.06.125-1.139,2.032-8.893,3.721a2.93,2.93,0,0,0,1.248,5.725,36.835,36.835,0,0,0,7.646-2.385v11.4C194.08,188.193,192.861,190.346,183.71,192.1Z" fill="#23242a"/><path d="M162.223,79.3V48.407A8.417,8.417,0,0,0,153.816,40H89.1a2.933,2.933,0,1,0,0,5.865h64.714a2.545,2.545,0,0,1,2.542,2.542V79.3a2.545,2.545,0,0,1-2.542,2.542H58.407A2.545,2.545,0,0,1,55.865,79.3V48.407a2.545,2.545,0,0,1,2.542-2.542H75.416a2.933,2.933,0,1,0,0-5.865H58.407A8.417,8.417,0,0,0,50,48.407V79.3A8.417,8.417,0,0,0,58.407,87.7h95.409A8.417,8.417,0,0,0,162.223,79.3Z" transform="translate(-30.449 -24.359)" fill="#23242a"/><path d="M120.048,368H98.933a2.933,2.933,0,1,0,0,5.865h21.115a2.933,2.933,0,1,0,0-5.865Z" transform="translate(-58.506 -224.254)" fill="#23242a"/><path d="M103.933,266.468h5.67v5.67a2.933,2.933,0,1,0,5.865,0v-5.67h5.67a2.933,2.933,0,1,0,0-5.865h-5.67v-5.67a2.933,2.933,0,0,0-5.865,0v5.67h-5.67a2.933,2.933,0,1,0,0,5.865Z" transform="translate(-61.552 -153.576)" fill="#23242a"/><path d="M250.116,259.3a2.933,2.933,0,0,0-4.148,0l-4.009,4.009L237.95,259.3a2.933,2.933,0,1,0-4.148,4.148l4.009,4.009-4.009,4.009a2.933,2.933,0,1,0,4.148,4.148l4.009-4.009,4.009,4.009a2.933,2.933,0,0,0,4.148-4.148l-4.009-4.009,4.009-4.009A2.933,2.933,0,0,0,250.116,259.3Z" transform="translate(-141.959 -157.499)" fill="#23242a"/><path d="M234.579,370.307a2.925,2.925,0,0,0,2.074-.859l13.295-13.295a2.933,2.933,0,0,0-4.148-4.148L232.505,365.3a2.932,2.932,0,0,0,2.074,5.006Z" transform="translate(-141.169 -213.995)" fill="#23242a"/><g transform="translate(91.898 135.846)"><ellipse cx="2.5" cy="3" rx="2.5" ry="3" fill="#23242a"/><circle cx="3" cy="3" r="3" transform="translate(11 15)" fill="#23242a"/></g><path d="M271.317,94.025a6.851,6.851,0,0,0,6.843-6.843V75.843A6.851,6.851,0,0,0,271.317,69h-5.474A6.851,6.851,0,0,0,259,75.843v11.34a6.851,6.851,0,0,0,6.843,6.843Zm-6.452-6.843V75.843a.978.978,0,0,1,.978-.978h5.474a.978.978,0,0,1,.978.978v11.34a.978.978,0,0,1-.978.978h-5.474A.978.978,0,0,1,264.865,87.183Z" transform="translate(-157.839 -42.02)" fill="#23242a"/></g></g></svg>