<svg xmlns="http://www.w3.org/2000/svg" width="200" height="200" viewBox="0 0 200 200"><g transform="translate(-143 -5504)"><path d="M526.729,3737.144c-13.168-13.168-158.019-173.821-50.039-144.851s89.544,55.307,89.544,55.307-5.267-7.9-23.7,39.5S526.729,3737.144,526.729,3737.144Z" transform="translate(-252 1948)" fill="#dc9168" opacity="0.3"/><g transform="translate(143 5504)"><g transform="translate(0)"><path d="M196.667,193.333H183.334V100a10.011,10.011,0,0,0-10-10V70a10.011,10.011,0,0,0-10-10V40a10.011,10.011,0,0,0-10-10V10a10.011,10.011,0,0,0-10-10H56.667a10.011,10.011,0,0,0-10,10V30a10.011,10.011,0,0,0-10,10V60a10.011,10.011,0,0,0-10,10V90a10.011,10.011,0,0,0-10,10v93.333H3.333a3.333,3.333,0,0,0,0,6.667H196.667a3.333,3.333,0,0,0,0-6.667ZM53.333,10a3.336,3.336,0,0,1,3.333-3.333h86.667A3.335,3.335,0,0,1,146.667,10V30H96.33A16.666,16.666,0,0,0,63.67,30H53.334V10ZM89.386,30H70.615a9.94,9.94,0,0,1,18.772,0ZM43.333,40a3.335,3.335,0,0,1,3.333-3.333H153.333A3.335,3.335,0,0,1,156.667,40V60H86.33A16.666,16.666,0,0,0,53.67,60H43.334V40ZM79.386,60H60.615a9.94,9.94,0,0,1,18.772,0ZM33.333,70a3.335,3.335,0,0,1,3.333-3.333H163.334A3.336,3.336,0,0,1,166.667,70V90H76.33A16.666,16.666,0,0,0,43.67,90H33.333ZM69.386,90H50.615a9.94,9.94,0,0,1,18.772,0ZM176.667,193.333H23.333V100a3.336,3.336,0,0,1,3.333-3.333H173.334A3.335,3.335,0,0,1,176.667,100v93.333Z" transform="translate(0)" fill="#23242a"/><path d="M115.7,325.258a21.829,21.829,0,1,0-21.829-21.829A21.829,21.829,0,0,0,115.7,325.258Zm0-36.382a14.553,14.553,0,1,1-14.553,14.553A14.553,14.553,0,0,1,115.7,288.876Z" transform="translate(-58.038 -174.115)" fill="#23242a"/><path d="M301.907,281.6h-76.4a3.638,3.638,0,1,0,0,7.276h76.4a3.638,3.638,0,0,0,0-7.276Z" transform="translate(-140.127 -171.947)" fill="#23242a"/><path d="M301.907,324.267h-76.4a3.638,3.638,0,1,0,0,7.276h76.4a3.638,3.638,0,0,0,0-7.276Z" transform="translate(-140.127 -198)" fill="#23242a"/><path d="M301.907,366.933h-76.4a3.638,3.638,0,0,0,0,7.276h76.4a3.638,3.638,0,0,0,0-7.276Z" transform="translate(-140.127 -224.052)" fill="#23242a"/><path d="M210.671,409.6H97.024a3.675,3.675,0,0,0,0,7.276H210.671a3.675,3.675,0,0,0,0-7.276Z" transform="translate(-53.847 -253.258)" fill="#23242a"/><path d="M210.671,452.267H97.024a3.675,3.675,0,0,0,0,7.276H210.671a3.675,3.675,0,0,0,0-7.276Z" transform="translate(-53.847 -277.734)" fill="#23242a"/></g></g></g></svg>