<svg xmlns="http://www.w3.org/2000/svg" width="200" height="200" viewBox="0 0 200 200"><g transform="translate(-140 -3711)"><path d="M526.729,3737.144c-13.168-13.168-158.019-173.821-50.039-144.851s89.544,55.307,89.544,55.307-5.267-7.9-23.7,39.5S526.729,3737.144,526.729,3737.144Z" transform="translate(-290 142)" fill="#dc9168" opacity="0.3"/><g transform="translate(140 3711)"><path d="M117.962,0H0V200H153.223V35.287Zm1.952,11.38,21.938,21.953H119.914Zm26.647,181.953H6.662V6.667h106.59V40h33.309Z" fill="#23242a"/><g transform="translate(13.364 33.291)"><path d="M88,141.3a33.252,33.252,0,0,0,2.118-46.977Q89.108,93.217,88,92.205l5.523-5.523h5.3V80H90.757L82.6,88.156a33.412,33.412,0,1,0,0,57.195l4.815,4.815h8.066v-6.682h-5.3ZM68.752,90.254a26.566,26.566,0,0,1,8.958,2.793l-1.3,1.3,4.724,4.724,2.138-2.138a26.663,26.663,0,0,1,8.634,16.482H68.752Zm14.524,46.323-2.138-2.138-4.724,4.724,1.3,1.3a26.71,26.71,0,1,1-15.64-50.205v29.84H91.91A26.663,26.663,0,0,1,83.276,136.577Z" transform="translate(-31.997 -80)" fill="#23242a"/></g><g transform="translate(86.781 27)"><rect width="13" height="6" fill="#23242a"/></g><g transform="translate(86.781 39.902)"><rect width="13" height="7" fill="#23242a"/></g><g transform="translate(83.788 89.78)"><rect width="13" height="7" fill="#23242a"/></g><g transform="translate(83.788 103.747)"><rect width="13" height="6" fill="#23242a"/></g><g transform="translate(17 123.699)"><rect width="6" height="6" fill="#23242a"/></g><g transform="translate(30 123.699)"><rect width="110" height="6" fill="#23242a"/></g><g transform="translate(17 136.665)"><rect width="123" height="7" fill="#23242a"/></g><g transform="translate(17 149.634)"><rect width="123" height="7" fill="#23242a"/></g><g transform="translate(17 163.527)"><rect width="123" height="6" fill="#23242a"/></g><g transform="translate(13 13)"><rect width="7" height="7" fill="#23242a"/></g><g transform="translate(27 13)"><rect width="26" height="7" fill="#23242a"/></g><g transform="translate(163.247 3.341)"><path d="M418.73,44.664V28h-3.341V8H395.341V28H392V177.986h3.341v13.332h6.682v10h6.682v-10h6.682V177.986h3.341V51.33h3.341v30h6.682V44.664Zm-16.706-30h6.682V28h-6.682Zm6.682,169.986h-6.682v-6.666h6.682Zm3.341-13.332H398.682V44.664h13.365Zm0-133.322H398.682V34.664h13.365Z" transform="translate(-392 -8)" fill="#23242a"/></g></g></g></svg>