<svg xmlns="http://www.w3.org/2000/svg" width="287" height="79.103" viewBox="0 0 287 79.103"><g transform="translate(-140 -90)"><text transform="translate(224 145)" fill="#fff" font-size="40" font-family="Lato-Bold, Lato" font-weight="700" letter-spacing="0.03em"><tspan x="0" y="0">TOM</tspan><tspan y="0" fill="#dc9168">-</tspan><tspan y="0">NOV</tspan></text><g transform="translate(-2909 -49)"><g transform="translate(3049 139)"><g transform="translate(0 0)"><path d="M92.422,19.994,58.1.218a1.619,1.619,0,0,0-1.621,0L22.158,19.994a1.65,1.65,0,0,0-.824,1.431V57.68a1.65,1.65,0,0,0,.824,1.431L56.479,78.886a1.619,1.619,0,0,0,1.621,0L92.422,59.11a1.65,1.65,0,0,0,.824-1.431V21.424A1.651,1.651,0,0,0,92.422,19.994Zm-2.445,36.73L57.29,75.557,24.6,56.724V22.38L57.29,3.547,89.977,22.38Z" transform="translate(-21.334 0)" fill="#dc9168"/></g></g><g transform="translate(3066 161)"><g transform="translate(0 0)"><path d="M67.74,36.564H60.7a1.076,1.076,0,0,0-1,1.136v7.724H54.659V32.337a1.076,1.076,0,0,0-1-1.136H46.615a1.076,1.076,0,0,0-1,1.136v21.5H40.577V44.177a1.076,1.076,0,0,0-1-1.136H32.533a1.076,1.076,0,0,0-1,1.136V65.926a1.076,1.076,0,0,0,1,1.136H67.739a1.076,1.076,0,0,0,1-1.136V37.7A1.076,1.076,0,0,0,67.74,36.564ZM38.571,64.79H33.535V45.313h5.036Zm7.041,0H40.577V56.106h5.036ZM52.654,46.56V64.79H47.618V33.473h5.036ZM59.7,64.79H54.66V47.7H59.7Zm7.041,0H61.7V38.836h5.036V64.79Z" transform="translate(-31.53 -31.201)" fill="#dc9168"/></g></g></g></g></svg>