<svg xmlns="http://www.w3.org/2000/svg" xmlns:xlink="http://www.w3.org/1999/xlink" width="170" height="119" viewBox="0 0 170 119"><defs><clipPath id="a"><rect width="170" height="119" fill="none"/></clipPath></defs><g clip-path="url(#a)"><g transform="translate(-831 -1949)"><circle cx="3.5" cy="3.5" r="3.5" transform="translate(831 1949)" fill="#dc9168"/><circle cx="3.5" cy="3.5" r="3.5" transform="translate(848 1949)" fill="#23242a"/></g><g transform="translate(-787 -1949)"><circle cx="3.5" cy="3.5" r="3.5" transform="translate(831 1949)" fill="#dc9168"/><circle cx="3.5" cy="3.5" r="3.5" transform="translate(848 1949)" fill="#23242a"/></g><g transform="translate(-743 -1949)"><circle cx="3.5" cy="3.5" r="3.5" transform="translate(831 1949)" fill="#dc9168"/><circle cx="3.5" cy="3.5" r="3.5" transform="translate(848 1949)" fill="#23242a"/></g><g transform="translate(-699 -1949)"><circle cx="3.5" cy="3.5" r="3.5" transform="translate(831 1949)" fill="#dc9168"/><circle cx="3.5" cy="3.5" r="3.5" transform="translate(848 1949)" fill="#23242a"/></g><g transform="translate(-831 -1922)"><circle cx="3.5" cy="3.5" r="3.5" transform="translate(831 1949)" fill="#dc9168"/><circle cx="3.5" cy="3.5" r="3.5" transform="translate(848 1949)" fill="#23242a"/></g><g transform="translate(-787 -1922)"><circle cx="3.5" cy="3.5" r="3.5" transform="translate(831 1949)" fill="#dc9168"/><circle cx="3.5" cy="3.5" r="3.5" transform="translate(848 1949)" fill="#23242a"/></g><g transform="translate(-743 -1922)"><circle cx="3.5" cy="3.5" r="3.5" transform="translate(831 1949)" fill="#dc9168"/><circle cx="3.5" cy="3.5" r="3.5" transform="translate(848 1949)" fill="#23242a"/></g><g transform="translate(-699 -1922)"><circle cx="3.5" cy="3.5" r="3.5" transform="translate(831 1949)" fill="#dc9168"/><circle cx="3.5" cy="3.5" r="3.5" transform="translate(848 1949)" fill="#23242a"/></g><g transform="translate(-831 -1895)"><circle cx="3.5" cy="3.5" r="3.5" transform="translate(831 1949)" fill="#dc9168"/><circle cx="3.5" cy="3.5" r="3.5" transform="translate(848 1949)" fill="#23242a"/></g><g transform="translate(-787 -1895)"><circle cx="3.5" cy="3.5" r="3.5" transform="translate(831 1949)" fill="#dc9168"/><circle cx="3.5" cy="3.5" r="3.5" transform="translate(848 1949)" fill="#23242a"/></g><g transform="translate(-743 -1895)"><circle cx="3.5" cy="3.5" r="3.5" transform="translate(831 1949)" fill="#dc9168"/><circle cx="3.5" cy="3.5" r="3.5" transform="translate(848 1949)" fill="#23242a"/></g><g transform="translate(-699 -1895)"><circle cx="3.5" cy="3.5" r="3.5" transform="translate(831 1949)" fill="#dc9168"/><circle cx="3.5" cy="3.5" r="3.5" transform="translate(848 1949)" fill="#23242a"/></g><g transform="translate(-831 -1868)"><circle cx="3.5" cy="3.5" r="3.5" transform="translate(831 1949)" fill="#dc9168"/><circle cx="3.5" cy="3.5" r="3.5" transform="translate(848 1949)" fill="#23242a"/></g><g transform="translate(-787 -1868)"><circle cx="3.5" cy="3.5" r="3.5" transform="translate(831 1949)" fill="#dc9168"/><circle cx="3.5" cy="3.5" r="3.5" transform="translate(848 1949)" fill="#23242a"/></g><g transform="translate(-743 -1868)"><circle cx="3.5" cy="3.5" r="3.5" transform="translate(831 1949)" fill="#dc9168"/><circle cx="3.5" cy="3.5" r="3.5" transform="translate(848 1949)" fill="#23242a"/></g><g transform="translate(-699 -1868)"><circle cx="3.5" cy="3.5" r="3.5" transform="translate(831 1949)" fill="#dc9168"/><circle cx="3.5" cy="3.5" r="3.5" transform="translate(848 1949)" fill="#23242a"/></g><g transform="translate(-831 -1841)"><circle cx="3.5" cy="3.5" r="3.5" transform="translate(831 1949)" fill="#dc9168"/><circle cx="3.5" cy="3.5" r="3.5" transform="translate(848 1949)" fill="#23242a"/></g><g transform="translate(-787 -1841)"><circle cx="3.5" cy="3.5" r="3.5" transform="translate(831 1949)" fill="#dc9168"/><circle cx="3.5" cy="3.5" r="3.5" transform="translate(848 1949)" fill="#23242a"/></g><g transform="translate(-743 -1841)"><circle cx="3.5" cy="3.5" r="3.5" transform="translate(831 1949)" fill="#dc9168"/><circle cx="3.5" cy="3.5" r="3.5" transform="translate(848 1949)" fill="#23242a"/></g><g transform="translate(-699 -1841)"><circle cx="3.5" cy="3.5" r="3.5" transform="translate(831 1949)" fill="#dc9168"/><circle cx="3.5" cy="3.5" r="3.5" transform="translate(848 1949)" fill="#23242a"/></g></g></svg>